<?xml version="1.0" encoding="UTF-8" standalone="no"?>
<svg
   width="800"
   height="800"
   viewBox="0 0 800 800"
   version="1.1"
   id="svg4"
   sodipodi:docname="AppIcon.svg"
   inkscape:version="1.3.2 (091e20e, 2023-11-25)"
   xmlns:inkscape="http://www.inkscape.org/namespaces/inkscape"
   xmlns:sodipodi="http://sodipodi.sourceforge.net/DTD/sodipodi-0.dtd"
   xmlns:xlink="http://www.w3.org/1999/xlink"
   xmlns="http://www.w3.org/2000/svg"
   xmlns:svg="http://www.w3.org/2000/svg">
  <sodipodi:namedview
     id="namedview4"
     pagecolor="#505050"
     bordercolor="#eeeeee"
     borderopacity="1"
     inkscape:showpageshadow="0"
     inkscape:pageopacity="0"
     inkscape:pagecheckerboard="0"
     inkscape:deskcolor="#d1d1d1"
     inkscape:zoom="0.46191405"
     inkscape:cx="337.72516"
     inkscape:cy="123.39958"
     inkscape:window-width="1872"
     inkscape:window-height="977"
     inkscape:window-x="0"
     inkscape:window-y="25"
     inkscape:window-maximized="0"
     inkscape:current-layer="svg4"
     showguides="false" />
  <rect
     x="0"
     y="0"
     width="800"
     height="800"
     rx="0"
     fill="#1e293b"
     id="rect1"
     style="fill:#707070;fill-opacity:1" />
  <path
     id="rect3"
     style="fill:url(#linearGradient6);stroke-width:21.9213;stroke-linecap:round;stroke-linejoin:round"
     d="M 0,0 H 800 V 664.46556 H 256.69736 c -33.76194,0 -66.87581,-21.00453 -66.87581,-61.40916 l 2.1649,-49.62752 c 0.1682,-42.32295 -13.4779,-55.67728 -49.10273,-54.63003 H 2.1649049 Z"
     sodipodi:nodetypes="ccccccccc" />
  <!-- Background: Rounded Square -->
  <!-- Tube Line (Minimalistic Path) -->
  <!-- Stations (Minimalistic) -->
  <!-- Station 1 -->
  <!-- Station 2 -->
  <!-- Station 3 -->
  <g
     id="g4"
     transform="translate(-109.74684,-108.72623)" />
  <!-- Defining Subtle Gradient for background -->
  <defs
     id="defs4">
    <linearGradient
       id="linearGradient3"
       inkscape:collect="always">
      <stop
         style="stop-color:#9d9d9d;stop-opacity:1;"
         offset="0"
         id="stop5" />
      <stop
         style="stop-color:#969696;stop-opacity:1;"
         offset="1"
         id="stop6" />
    </linearGradient>
    <linearGradient
       id="grad1"
       x1="0"
       y1="0"
       x2="1"
       y2="1">
      <stop
         offset="0%"
         style="stop-color:#334155;stop-opacity:1"
         id="stop3" />
      <stop
         offset="100%"
         style="stop-color:#1E293B;stop-opacity:1"
         id="stop4" />
    </linearGradient>
    <linearGradient
       inkscape:collect="always"
       xlink:href="#linearGradient3"
       id="linearGradient6"
       x1="400"
       y1="0"
       x2="400"
       y2="800"
       gradientUnits="userSpaceOnUse" />
  </defs>
  <g
     id="Regular-S"
     transform="translate(555.9914,319.87085)"
     style="fill:#ffffff;fill-opacity:1;stroke:none">
    <path
       class="monochrome-0 multicolor-0:tintColor hierarchical-0:primary SFSymbolsPreviewWireframe"
       d="m -81.549024,249.12289 c 9.62833,0 15.84688,-6.61963 15.84688,-16.04757 0,-4.61368 -1.40417,-8.0238 -4.413,-11.03271 L -115.10097,176.71579 H 73.227157 c 39.316493,0 54.962893,-17.45154 54.962893,-54.96288 V 29.880518 c 0,-23.1219186 -32.496504,-23.5931346 -32.496504,0 v 91.872392 c 0,22.66727 -11.359789,22.66727 -22.466389,22.66727 -75.5850952,-2e-5 -186.704447,0.12485 -186.704447,0.12485 l 43.067436,-40.78128 c 3.00883,-2.80835 4.413,-6.419027 4.413,-11.03292 0,-9.427856 -6.21855,-15.846881 -15.84688,-15.846881 -4.01205,0 -8.62553,1.80554 -11.83525,5.01485 l -67.657066,66.533021 c -3.61068,3.41019 -5.41614,7.62272 -5.41614,12.03572 0,4.413 1.80546,8.62553 5.41614,12.2362 l 67.951776,71.40426 c 3.20972,3.00895 7.8232,5.01489 11.83525,5.01489 z"
       id="path32"
       style="opacity:1;fill:#ffffff;fill-opacity:1;stroke:none;stroke-width:2.05409;-sfsymbols-layer-tags:return;-sfsymbols-motion-group:0"
       sodipodi:nodetypes="ssccssssssccssccsccs" />
  </g>
</svg>
